<svg id="Layer_1" data-name="Layer 1" xmlns="http://www.w3.org/2000/svg" width="114.83" height="47.89" viewBox="0 0 114.83 47.89"><title>souq-english115x48</title><path d="M17.45,11.45,9.69,9.72c-1.58-.35-2.07-.8-2.07-1.6C7.62,7.5,8.11,7,9.54,7H23.79V2.8A2.14,2.14,0,0,0,21.65.66H9.19C3.16.67,0,4.15,0,8.6c0,4,2.44,6.36,7.3,7.45l7.76,1.74c1.58.35,2.07.8,2.07,1.6,0,.62-.49,1.11-1.92,1.11H.47v4.2a2.14,2.14,0,0,0,2.14,2.14H14.75c7.13,0,10-3.49,10-7.63s-2.47-6.67-7.3-7.76" transform="translate(0 -0.11)" fill="#008bff"/><path d="M77.94.51a2.17,2.17,0,0,0-2.19,2.15V15.45a5,5,0,0,1-5.38,4.95,5.12,5.12,0,0,1-4.73-5.14V2.67A2.17,2.17,0,0,0,63.45.52H59a0,0,0,0,0,0,0V15.15A11.84,11.84,0,0,0,70.27,27a11.68,11.68,0,0,0,12.2-11.53V.54a0,0,0,0,0,0,0H77.94Z" transform="translate(0 -0.11)" fill="#008bff"/><path d="M41.53,20.69a6.9,6.9,0,1,1,6.9-6.9,6.91,6.91,0,0,1-6.9,6.9m0-20.51A13.61,13.61,0,1,0,55.14,13.79,13.63,13.63,0,0,0,41.53.18" transform="translate(0 -0.11)" fill="#008bff"/><path d="M106.49,15.54l-2.6-2.6L99,17.64l2.7,2.7a6.89,6.89,0,0,1-8.8-6.63,6.9,6.9,0,0,1,13.8,0,6.47,6.47,0,0,1-.24,1.83m5.07,5.08a13.47,13.47,0,0,0,1.89-6.9,13.62,13.62,0,1,0-6.65,11.69l1.34,1.34a2.21,2.21,0,0,0,3.12,0l3.2-3.2a0,0,0,0,0,0,0Z" transform="translate(0 -0.11)" fill="#008bff"/><path d="M5.49,43H4.4l-.11-.69a3.49,3.49,0,0,1-1.06.64,3.18,3.18,0,0,1-1.15.23,2.1,2.1,0,0,1-1.51-.54A1.93,1.93,0,0,1,0,41.17a1.91,1.91,0,0,1,.69-1.55A2.79,2.79,0,0,1,2.56,39a7,7,0,0,1,1.68.23v-.88a1.29,1.29,0,0,0-.33-1,1.64,1.64,0,0,0-1.11-.29,7.31,7.31,0,0,0-2.34.41v-.93a4.22,4.22,0,0,1,1.17-.39A7.3,7.3,0,0,1,3,36a2.8,2.8,0,0,1,1.87.53,2,2,0,0,1,.6,1.61V43ZM4.24,40.11a6.2,6.2,0,0,0-1.42-.17c-1,0-1.51.39-1.51,1.16a1,1,0,0,0,.28.78,1.11,1.11,0,0,0,.8.27,3.15,3.15,0,0,0,1.84-.68V40.11Z" transform="translate(0 -0.11)" fill="#323e48"/><path d="M13.34,43H12V38.46a1.57,1.57,0,0,0-.29-1,1.13,1.13,0,0,0-.9-.33,3.67,3.67,0,0,0-2.06.68V43H7.45V36.23H8.56l.13.75A4.38,4.38,0,0,1,11.35,36a2,2,0,0,1,1.48.51A2,2,0,0,1,13.34,38Z" transform="translate(0 -0.11)" fill="#323e48"/><path d="M65.63,42.72a3.81,3.81,0,0,1-1.79.4,3.09,3.09,0,0,1-2.4-.9,3.68,3.68,0,0,1-.83-2.6A3.73,3.73,0,0,1,61.47,37a3.14,3.14,0,0,1,2.43-.93,3.89,3.89,0,0,1,1.68.37v1a4.93,4.93,0,0,0-1.49-.24,2,2,0,0,0-1.61.57A2.72,2.72,0,0,0,62,39.53v.17a2.66,2.66,0,0,0,.5,1.78,2,2,0,0,0,1.58.57,5.23,5.23,0,0,0,1.57-.27v.94Z" transform="translate(0 -0.11)" fill="#323e48"/><path d="M72.14,42.23a3.43,3.43,0,0,1-4.74,0,3.79,3.79,0,0,1-.85-2.64A3.76,3.76,0,0,1,67.4,37a3.43,3.43,0,0,1,4.74,0A3.76,3.76,0,0,1,73,39.59,3.8,3.8,0,0,1,72.14,42.23Zm-2.37-.12c1.25,0,1.88-.84,1.88-2.52s-.63-2.5-1.88-2.5-1.88.83-1.88,2.5S68.52,42.11,69.77,42.11Z" transform="translate(0 -0.11)" fill="#323e48"/><path d="M84.57,43H83.25V38.4a1.61,1.61,0,0,0-.25-1,1,1,0,0,0-.8-.32,3.75,3.75,0,0,0-2,.6,1.27,1.27,0,0,1,0,.2V43H78.93V38.4a1.61,1.61,0,0,0-.25-1,1,1,0,0,0-.8-.32,3.64,3.64,0,0,0-1.95.59V43H74.61V36.23h1.11l.13.68A4.37,4.37,0,0,1,78.34,36,1.67,1.67,0,0,1,80,37,4.52,4.52,0,0,1,82.66,36a1.84,1.84,0,0,1,1.41.52A2.07,2.07,0,0,1,84.56,38V43Z" transform="translate(0 -0.11)" fill="#323e48"/><path d="M87.84,45.72H86.52v-9.5h1.11l.12.69A3.3,3.3,0,0,1,90,36,2.46,2.46,0,0,1,92,37a4,4,0,0,1,.75,2.55A4,4,0,0,1,92,42.13a2.53,2.53,0,0,1-2.09,1,2.92,2.92,0,0,1-2.06-.79v3.39Zm0-4.3a2.91,2.91,0,0,0,1.76.64c1.23,0,1.84-.83,1.84-2.48A3.2,3.2,0,0,0,91,37.7a1.57,1.57,0,0,0-1.37-.61,3,3,0,0,0-1.79.61v3.72Z" transform="translate(0 -0.11)" fill="#323e48"/><path d="M99.47,43H98.38l-.11-.69a3.49,3.49,0,0,1-1.06.64,3.18,3.18,0,0,1-1.15.23,2.1,2.1,0,0,1-1.51-.54,2.11,2.11,0,0,1,.12-3A2.79,2.79,0,0,1,96.54,39a7.1,7.1,0,0,1,1.68.23v-.88a1.29,1.29,0,0,0-.33-1,1.64,1.64,0,0,0-1.11-.29,7.35,7.35,0,0,0-2.34.41v-.93a4.22,4.22,0,0,1,1.17-.39A7.3,7.3,0,0,1,97,36a2.75,2.75,0,0,1,1.86.53,2,2,0,0,1,.6,1.61Zm-1.25-2.87a5.55,5.55,0,0,0-1.41-.17c-1,0-1.51.39-1.51,1.16a1,1,0,0,0,.28.78,1.11,1.11,0,0,0,.8.27,3.15,3.15,0,0,0,1.84-.68Z" transform="translate(0 -0.11)" fill="#323e48"/><path d="M107.32,43H106V38.46a1.57,1.57,0,0,0-.29-1,1.13,1.13,0,0,0-.9-.33,3.67,3.67,0,0,0-2.06.68V43h-1.32V36.23h1.11l.13.75a4.38,4.38,0,0,1,2.66-.95,2,2,0,0,1,1.48.51,2,2,0,0,1,.51,1.49Z" transform="translate(0 -0.11)" fill="#323e48"/><path d="M111.75,44.16a3.16,3.16,0,0,1-.83,1.32,1.86,1.86,0,0,1-1.23.4,2.75,2.75,0,0,1-1-.19v-.95a3.1,3.1,0,0,0,.76.09,1.13,1.13,0,0,0,.78-.25,2.09,2.09,0,0,0,.51-.87L111,43l-2.72-6.82h1.41l2,5.53,1.88-5.53h1.36Z" transform="translate(0 -0.11)" fill="#323e48"/><path d="M41.75,45.4a15,15,0,0,1-8.5,2.6,15.42,15.42,0,0,1-10.39-4c-.22-.19,0-.46.24-.31a20.62,20.62,0,0,0,18.32,1.14C41.81,44.7,42.13,45.12,41.75,45.4Z" transform="translate(0 -0.11)" fill="#323e48" fill-rule="evenodd"/><path d="M42.71,44.31c-.29-.38-1.94-.18-2.69-.09-.22,0-.26-.17-.06-.31a4.14,4.14,0,0,1,3.72-.35c.25.31-.07,2.47-1.3,3.51-.19.16-.37.07-.29-.14C42.38,46.24,43,44.68,42.71,44.31Z" transform="translate(0 -0.11)" fill="#323e48" fill-rule="evenodd"/><path d="M40.09,37.38v-.9a.22.22,0,0,1,.23-.23h4a.22.22,0,0,1,.23.23v.77a1.28,1.28,0,0,1-.3.57l-2.09,3a4.54,4.54,0,0,1,2.3.49.4.4,0,0,1,.21.35v1a.22.22,0,0,1-.3.21,4.62,4.62,0,0,0-4.25,0c-.14.07-.29-.08-.29-.21V41.7a1.06,1.06,0,0,1,.15-.62l2.42-3.47h-2.1A.23.23,0,0,1,40.09,37.38Z" transform="translate(0 -0.11)" fill="#323e48" fill-rule="evenodd"/><path d="M25.4,43H24.18a.24.24,0,0,1-.22-.21V36.49a.23.23,0,0,1,.24-.23h1.14a.23.23,0,0,1,.22.21v.82h0a1.68,1.68,0,0,1,3.2,0,1.81,1.81,0,0,1,3.11-.47,3.33,3.33,0,0,1,.31,2v4A.23.23,0,0,1,32,43H30.74a.24.24,0,0,1-.22-.23V39.43a9.25,9.25,0,0,0,0-1.18.64.64,0,0,0-.72-.54.8.8,0,0,0-.73.52,3.69,3.69,0,0,0-.11,1.2v3.33a.23.23,0,0,1-.24.23H27.47a.24.24,0,0,1-.22-.23V39.43c0-.7.11-1.73-.75-1.73s-.85,1-.85,1.73v3.33A.25.25,0,0,1,25.4,43Z" transform="translate(0 -0.11)" fill="#323e48" fill-rule="evenodd"/><path d="M48,36.13c1.82,0,2.8,1.56,2.8,3.55s-1.09,3.44-2.8,3.44-2.76-1.56-2.76-3.51S46.27,36.13,48,36.13Zm0,1.29c-.9,0-1,1.23-1,2s0,2.41.95,2.41,1-1.32,1-2.13A5.86,5.86,0,0,0,48.85,38,.76.76,0,0,0,48.05,37.42Z" transform="translate(0 -0.11)" fill="#323e48" fill-rule="evenodd"/><path d="M53.2,43H52a.24.24,0,0,1-.22-.23V36.47a.23.23,0,0,1,.24-.21h1.14a.24.24,0,0,1,.22.18v1h0a1.66,1.66,0,0,1,1.67-1.27,1.61,1.61,0,0,1,1.43.74,4,4,0,0,1,.32,2v4a.23.23,0,0,1-.23.2H55.34a.24.24,0,0,1-.22-.2V39.38c0-.69.08-1.69-.77-1.69a.81.81,0,0,0-.71.5,2.81,2.81,0,0,0-.19,1.19v3.39A.25.25,0,0,1,53.2,43Z" transform="translate(0 -0.11)" fill="#323e48" fill-rule="evenodd"/><path d="M39.06,41.83a1.69,1.69,0,0,1-.46-1.14V38.78c0-.81.06-1.55-.54-2.11a2.78,2.78,0,0,0-1.84-.61,2.49,2.49,0,0,0-2.74,1.88.22.22,0,0,0,.18.26l1.19.13a.26.26,0,0,0,.21-.23.93.93,0,0,1,1-.74.82.82,0,0,1,.69.32,1.59,1.59,0,0,1,.15.89v.16a8.49,8.49,0,0,0-2.3.42,2.08,2.08,0,0,0-1.31,2,1.74,1.74,0,0,0,1.83,1.91,2.44,2.44,0,0,0,2-.89,3.12,3.12,0,0,0,.7.82.26.26,0,0,0,.29,0h0c.24-.22.69-.6.94-.81S39.14,42,39.06,41.83ZM36.88,40a2.42,2.42,0,0,1-.23,1.3,1,1,0,0,1-.85.56c-.47,0-.74-.36-.74-.89,0-1,.94-1.23,1.82-1.23Z" transform="translate(0 -0.11)" fill="#323e48" fill-rule="evenodd"/><path d="M23,41.83a1.69,1.69,0,0,1-.46-1.14V38.78c0-.81.06-1.55-.54-2.11a2.78,2.78,0,0,0-1.84-.61,2.49,2.49,0,0,0-2.74,1.88.22.22,0,0,0,.18.26l1.19.13A.26.26,0,0,0,19,38.1a.93.93,0,0,1,1-.74.82.82,0,0,1,.69.32,1.59,1.59,0,0,1,.15.89v.16a8.49,8.49,0,0,0-2.3.42,2.08,2.08,0,0,0-1.31,2A1.74,1.74,0,0,0,19,43.06a2.44,2.44,0,0,0,2-.89,3.12,3.12,0,0,0,.7.82.26.26,0,0,0,.29,0h0c.24-.22.69-.6.94-.81S23.08,42,23,41.83ZM20.82,40a2.42,2.42,0,0,1-.23,1.3,1,1,0,0,1-.85.56c-.47,0-.74-.36-.74-.89,0-1,.94-1.23,1.82-1.23Z" transform="translate(0 -0.11)" fill="#323e48" fill-rule="evenodd"/></svg>